<svg version="1.1" id="Layer_1" xmlns="http://www.w3.org/2000/svg" xmlns:xlink="http://www.w3.org/1999/xlink" x="0px" y="0px"
	 width="100%" viewBox="0 0 1024 1024" enable-background="new 0 0 1024 1024" xml:space="preserve">
<path fill="#000000" opacity="1.000000" stroke="none" 
	d="
M780.010498,787.675781 
	C806.339905,787.678894 832.171936,787.780518 858.002869,787.655762 
	C883.497253,787.532654 908.868530,785.367065 934.258423,783.174500 
	C950.136902,781.803345 966.241028,780.894409 981.852539,785.737122 
	C993.773743,789.435059 1000.648010,799.163940 1000.312134,811.223206 
	C1000.021301,821.666870 992.293152,830.522827 980.707031,833.622864 
	C976.837158,834.658386 972.892273,835.134583 968.877686,835.355896 
	C953.921387,836.180237 939.883423,832.031006 925.866760,827.681702 
	C908.383728,822.256714 891.547363,814.829407 873.606384,810.820312 
	C869.042664,809.800598 864.461060,809.156860 859.757324,809.216675 
	C852.110413,809.313965 845.496338,811.681824 839.745911,816.883118 
	C833.350281,822.667908 827.142395,828.786011 817.743530,829.725403 
	C811.629700,830.336487 805.727173,829.996826 800.114136,827.614807 
	C768.482422,814.190857 735.076782,807.268127 701.602295,800.594055 
	C699.716797,800.218079 697.140991,799.699585 696.783630,802.517639 
	C696.409424,805.469238 699.268311,805.853149 701.242065,806.258850 
	C715.440125,809.177124 729.477600,812.741516 743.350647,816.899048 
	C764.253479,823.163391 785.200562,829.402466 804.244385,840.458252 
	C812.340088,845.158203 819.816895,850.747986 826.322693,857.531433 
	C833.342712,864.850891 835.920593,873.469116 832.895325,883.255249 
	C829.886047,892.989807 822.364746,897.817932 812.809570,898.901367 
	C797.293091,900.660767 785.916687,899.551270 777.096619,882.600952 
	C767.874268,864.877563 753.458862,852.773010 737.731384,841.598938 
	C712.299255,823.530029 683.110657,814.197205 653.707581,805.383484 
	C638.394104,800.793274 622.753723,797.503418 607.134766,794.147461 
	C599.243713,792.451965 598.898010,791.893677 602.077515,784.794800 
	C614.028015,758.112793 620.744629,730.087036 623.931763,701.110657 
	C627.132568,672.009216 627.664001,642.985046 621.674011,614.147278 
	C619.845337,605.343445 617.541809,596.617493 613.744568,588.424438 
	C612.184814,585.058960 610.535217,580.462463 605.777283,581.563354 
	C600.697754,582.738647 601.877502,587.657043 602.360779,591.229980 
	C603.383972,598.795654 605.397339,606.236267 606.263794,613.812866 
	C609.010254,637.826416 610.100098,661.874756 608.506714,686.081726 
	C606.278076,719.940552 600.316467,753.089478 591.329163,785.739441 
	C589.254456,793.276855 586.850952,800.736206 584.275208,808.118591 
	C582.704163,812.621216 583.409607,815.412659 587.899231,817.886230 
	C599.415466,824.230896 611.386108,829.792114 622.146606,837.483704 
	C633.727417,845.761719 642.280579,856.011597 643.758850,870.723389 
	C645.901855,892.051331 632.522339,906.222107 612.423218,905.281067 
	C606.201599,904.989807 601.986633,901.408325 598.908569,896.243835 
	C595.609497,890.708557 594.158020,884.536560 592.833801,878.351013 
	C590.098755,865.576111 583.023254,855.517883 573.421204,847.057617 
	C568.374390,842.611084 565.257202,843.203918 561.819092,848.935974 
	C556.567444,857.691650 554.160767,867.300415 553.311096,877.374878 
	C552.933655,881.849976 552.684753,886.341370 552.133301,890.795166 
	C550.892456,900.818115 543.952454,906.768555 534.215332,906.344482 
	C525.599426,905.969299 518.015137,898.403870 517.783203,889.284302 
	C517.558899,880.462219 517.949585,871.624878 518.052368,862.793945 
	C518.099976,858.702393 517.432556,854.946411 514.380920,851.758728 
	C511.400909,848.645752 508.391479,847.670227 504.720917,850.263794 
	C500.915985,852.952271 497.139771,855.682922 493.396088,858.455933 
	C491.121368,860.140747 488.995697,862.030151 486.692078,863.671936 
	C480.569885,868.035217 475.281433,868.579468 471.078339,865.404419 
	C466.850494,862.210938 465.410583,855.219055 467.698792,848.868591 
	C469.792999,843.056702 474.384277,839.407959 479.156158,836.021118 
	C488.856476,829.136597 499.533783,824.052673 510.460388,819.465454 
	C517.891724,816.345642 525.001526,812.850586 529.869141,805.963562 
	C531.908691,803.077759 532.929871,800.416260 532.055054,796.726501 
	C529.295349,785.086182 525.982544,773.574646 524.463440,761.640625 
	C520.474243,730.301880 522.812378,699.592468 532.129211,669.322021 
	C536.729919,654.374268 542.491638,639.781372 545.970520,624.483582 
	C546.473450,622.272156 546.554993,620.242249 545.656433,618.159546 
	C542.921692,611.820862 537.614807,610.916992 533.396851,616.357422 
	C531.069153,619.359680 529.069885,622.711731 527.453735,626.155396 
	C515.342468,651.961670 510.202301,679.528809 507.323853,707.618286 
	C504.187714,738.222595 510.418488,767.553833 519.762634,796.430359 
	C520.172852,797.698181 520.644592,798.949585 520.987305,800.235352 
	C522.571289,806.178040 521.521667,808.200256 515.630676,809.677612 
	C512.419861,810.482849 509.094849,811.132141 505.799316,811.253418 
	C472.309540,812.485840 439.358643,808.112366 406.672119,801.323120 
	C398.492462,799.624146 397.812317,798.365051 401.161438,790.920715 
	C411.515808,767.905090 416.448608,743.590454 416.214783,718.609314 
	C415.896027,684.559265 409.954681,651.372437 395.860779,620.025452 
	C395.113922,618.364380 394.219452,616.720703 393.118469,615.279114 
	C391.371460,612.991760 389.289124,610.720032 386.035522,611.795898 
	C382.869080,612.842957 381.519012,615.463562 381.276215,618.761108 
	C380.726807,626.224182 382.549255,633.328125 384.576965,640.368347 
	C389.089539,656.036316 393.350250,671.750427 396.339233,687.804871 
	C401.615417,716.144409 399.524567,744.134521 392.741394,771.920715 
	C390.966614,779.190796 388.679626,786.334290 386.753540,793.569458 
	C384.825623,800.811584 386.037537,803.898743 392.370483,807.864014 
	C401.546204,813.609375 411.307373,818.378845 420.191132,824.622559 
	C425.393341,828.278870 430.440704,832.105042 434.418823,837.106140 
	C441.564117,846.088745 441.100281,856.691711 433.394440,863.588501 
	C427.990479,868.424988 421.713898,868.668457 416.369385,863.765320 
	C409.988190,857.911072 404.063751,851.555908 397.636566,845.755615 
	C391.409760,840.136292 387.689117,840.865417 383.063629,847.746826 
	C379.735687,852.697815 377.709991,857.831238 377.983490,864.050232 
	C378.267731,870.514709 377.640228,877.027222 377.261688,883.510010 
	C377.012177,887.783752 375.625671,891.614197 372.317810,894.614380 
	C364.736938,901.490295 353.878815,898.434692 351.786713,888.448975 
	C349.365814,876.894043 347.848328,865.145447 343.418640,854.079529 
	C342.175964,850.975159 340.869995,847.917725 338.970795,845.156677 
	C335.868103,840.646057 333.479431,839.948669 328.974152,843.182068 
	C316.072540,852.441528 306.331177,864.204102 301.288605,879.511597 
	C300.090668,883.148010 298.596069,886.690857 297.493011,890.353577 
	C292.590820,906.631226 278.138153,906.923401 267.364685,901.168579 
	C245.283249,889.373474 244.196793,866.019287 254.692612,848.265686 
	C261.986023,835.928955 273.806549,828.518188 286.061066,821.873291 
	C300.295410,814.154968 315.291290,808.119934 330.292358,802.103271 
	C338.058990,798.988159 337.973907,798.978088 335.865631,791.072571 
	C329.975739,768.987000 326.860352,746.441895 324.599548,723.736633 
	C323.295898,710.644165 322.328827,697.536072 321.733643,684.401062 
	C320.299042,652.739868 324.523224,621.639526 331.197235,590.788635 
	C332.004852,587.055481 332.814026,583.318970 332.728088,579.434570 
	C332.651459,575.971069 331.745972,573.088257 328.161255,571.951294 
	C324.694275,570.851501 322.917419,573.557068 321.252930,575.724792 
	C318.270508,579.608948 316.816589,584.283264 315.389740,588.896851 
	C308.760284,610.333130 304.524048,632.132202 305.235901,654.721741 
	C305.639679,667.535706 304.671783,680.380188 306.099945,693.180237 
	C306.284943,694.838501 306.915833,696.803223 305.265869,698.235474 
	C303.392395,698.034119 303.289917,696.469910 302.871307,695.326050 
	C293.112732,668.659912 290.054535,641.137878 291.267944,612.835388 
	C292.261780,589.654114 297.556763,567.401367 303.637817,545.249939 
	C305.121033,539.846985 303.939148,536.497192 299.695404,532.763123 
	C255.416595,493.801453 222.454498,447.064514 203.369507,390.959534 
	C199.064224,378.303101 196.071625,365.348877 195.715591,351.917084 
	C195.181412,331.763489 203.010651,314.785004 215.189117,299.187134 
	C226.782837,284.338165 239.878387,270.748047 251.087219,255.590973 
	C253.633362,252.147964 255.272034,248.015396 258.550323,245.275848 
	C260.650024,245.226791 261.223145,246.799866 262.076477,247.956284 
	C274.670380,265.023041 295.878845,269.451324 313.888489,258.235046 
	C336.848724,243.935562 348.461487,222.782120 349.499176,195.944748 
	C349.780731,188.662872 348.558838,181.318970 345.929443,174.380188 
	C339.682648,157.895477 328.615997,149.984726 311.127075,149.371185 
	C309.515686,149.314636 307.758606,149.702560 306.399750,148.285538 
	C305.628021,146.536102 306.871582,145.445435 307.839233,144.388641 
	C319.943848,131.169205 333.975494,120.833237 352.148254,118.297157 
	C378.422302,114.630493 400.540283,122.128456 416.671082,144.266861 
	C423.792755,154.040878 425.611206,165.234390 426.069977,176.844742 
	C426.267242,181.836914 426.163147,186.842651 426.126892,191.841721 
	C426.107544,194.512924 426.876495,196.407883 429.925446,196.620712 
	C453.462860,198.263763 476.237213,203.931351 498.934418,209.907913 
	C504.212067,211.297592 508.459564,210.270676 513.027344,207.384720 
	C539.872620,190.423737 567.779480,187.546097 595.531921,204.309021 
	C618.289124,218.054733 631.108459,239.118454 635.414917,265.460938 
	C638.497803,284.318573 634.673462,301.607300 624.371704,317.429993 
	C621.277466,322.182495 621.971375,325.308319 625.214783,329.639130 
	C657.857727,373.226562 679.601013,421.775574 690.705078,475.095764 
	C694.919739,495.333832 695.082092,515.741821 693.512817,536.236389 
	C693.208252,540.214661 693.389893,544.224976 692.484009,548.168213 
	C692.161072,549.573975 691.969116,551.331665 693.533752,552.247925 
	C695.446594,553.368103 696.627319,551.770081 697.799500,550.662842 
	C708.836243,540.238220 720.303589,530.335022 732.789429,521.661560 
	C753.715759,507.124634 777.120178,499.712677 802.357788,497.944183 
	C811.375793,497.312317 820.321655,498.584717 828.938354,501.494537 
	C853.190430,509.684326 859.149292,524.222595 856.725159,546.910889 
	C854.589355,566.900635 845.011841,584.387207 834.777954,601.151123 
	C818.287476,628.164124 801.232788,654.874268 780.280762,678.786560 
	C757.693604,704.564941 732.995300,728.053101 704.855408,747.767944 
	C700.844910,750.577698 700.835266,750.563965 698.966492,753.706299 
	C700.978577,756.054199 703.748535,755.623718 706.333557,755.558411 
	C739.951355,754.709717 773.579529,754.097717 806.993530,749.663513 
	C829.279541,746.705994 851.249512,742.108032 873.190613,737.333923 
	C879.574951,735.944824 886.010498,735.452271 892.532776,735.638977 
	C903.806335,735.961792 911.551758,742.376099 913.086792,752.791626 
	C914.595459,763.027771 908.515747,772.962585 898.454590,776.190552 
	C890.614319,778.705933 882.433777,779.064392 874.262817,779.326721 
	C823.449829,780.958008 772.619385,779.854797 721.799133,780.323425 
	C716.434021,780.372925 716.433960,780.365295 713.485046,782.656860 
	C715.718201,785.603760 719.138733,785.292786 722.094299,785.509644 
	C730.725342,786.143066 739.381165,786.477905 748.032471,786.785767 
	C758.523132,787.159119 769.019043,787.385315 780.010498,787.675781 
M566.863953,355.380585 
	C593.053467,339.392883 605.639648,315.491516 605.616760,285.374939 
	C605.586731,245.932907 571.709961,208.797897 519.395508,227.939240 
	C480.954041,242.004608 462.568054,282.854736 475.649658,321.564636 
	C482.556213,342.001801 496.305664,356.662750 517.769531,362.040405 
	C534.485657,366.228607 550.852722,363.889069 566.863953,355.380585 
M260.830750,356.540680 
	C317.601318,370.029694 372.903870,388.155945 427.252045,409.283508 
	C455.798309,420.380737 484.205688,431.846313 513.421875,441.133820 
	C520.929321,443.520355 528.641174,444.693756 536.446777,445.322784 
	C539.256958,445.549255 542.116211,444.741516 542.886658,441.758301 
	C543.573486,439.098755 540.710266,438.398468 538.979614,437.271851 
	C538.014526,436.643524 536.898010,436.225586 535.813904,435.805389 
	C493.448792,419.384216 451.669434,401.426758 408.849976,386.216644 
	C355.229767,367.169983 301.253754,349.167786 244.851700,339.890717 
	C237.470840,338.676697 230.054703,337.474731 222.516754,338.101105 
	C220.868958,338.238037 219.015152,338.338959 218.456024,340.343170 
	C217.850540,342.513550 219.249908,343.892700 220.910538,344.760529 
	C223.407547,346.065491 225.984070,347.287079 228.645645,348.196075 
	C238.897675,351.697601 249.579605,353.577423 260.830750,356.540680 
M690.908386,708.394409 
	C689.267517,710.696228 687.385559,712.866272 686.541870,715.630859 
	C686.141907,716.941467 686.076782,718.315552 687.466187,719.196289 
	C688.613342,719.923401 689.793457,719.614868 690.723206,718.851562 
	C692.907776,717.058350 695.098877,715.251404 697.104736,713.265503 
	C722.912048,687.715271 745.131531,659.273315 764.827454,628.826843 
	C772.340759,617.212708 779.530945,605.388794 784.653992,592.467224 
	C786.306702,588.298645 787.922302,584.064331 787.607361,579.431519 
	C787.396118,576.324768 785.775574,574.069397 783.030029,572.772888 
	C780.212952,571.442688 778.654175,573.790039 777.168396,575.402649 
	C774.695312,578.086914 772.270508,580.890686 770.298523,583.949280 
	C758.564087,602.150024 746.825623,620.350952 735.356506,638.719177 
	C720.891174,661.886047 707.588562,685.789978 690.908386,708.394409 
z"/>
<path fill="#000000" opacity="1.000000" stroke="none" 
	d="
M275.359253,610.244629 
	C275.254944,631.355530 274.691711,651.991699 279.224792,672.368347 
	C283.483398,691.511292 290.764130,709.520569 298.886414,727.247559 
	C304.296692,739.055603 310.015839,750.726562 315.208160,762.628479 
	C319.011780,771.347046 316.286652,776.959839 306.957703,779.482300 
	C298.299072,781.823486 289.363190,783.125122 280.669830,785.354248 
	C250.591797,793.066833 221.220444,802.774597 193.951614,817.934570 
	C179.594757,825.916138 169.137054,837.887451 160.809113,851.864136 
	C157.567932,857.303772 154.277130,862.719788 149.660202,867.167664 
	C142.361710,874.199036 132.077774,876.217102 123.353737,872.307800 
	C115.106369,868.612183 110.289253,860.123657 110.743202,849.815979 
	C111.098976,841.737793 113.677223,834.609009 119.394447,828.590332 
	C128.947769,818.533264 140.763107,812.328857 153.541550,807.562805 
	C181.540497,797.119873 210.568253,790.421509 239.600754,783.717346 
	C241.876190,783.191895 244.656067,783.283447 246.060730,780.250488 
	C242.068954,778.126404 238.106857,779.173218 234.310287,779.793030 
	C211.923599,783.447510 190.043655,789.293457 168.504272,796.246521 
	C154.612228,800.730957 142.063004,799.835632 130.309525,790.829346 
	C122.162613,784.586670 113.253334,783.763306 103.391113,786.478149 
	C90.564766,790.008972 77.535431,792.822327 64.546219,795.733765 
	C57.333134,797.350464 50.014454,797.494873 42.740776,795.869873 
	C28.431072,792.672974 22.382372,784.862183 23.663803,771.284485 
	C24.615467,761.201050 34.695137,753.261292 47.009899,752.677002 
	C58.481419,752.132568 69.554169,754.742432 80.549736,757.220520 
	C94.639091,760.395996 108.901909,761.393616 123.190025,761.532532 
	C156.513855,761.856628 189.843338,761.666016 223.170105,761.553955 
	C228.949326,761.534546 234.726395,760.878418 241.281342,760.467712 
	C239.412552,757.976562 237.281006,757.745300 235.294281,757.374878 
	C218.397430,754.224731 201.272888,753.273682 184.163010,752.348450 
	C162.215485,751.161621 140.247208,750.358765 118.299332,749.177429 
	C113.171021,748.901367 107.982368,748.079590 103.402641,745.421997 
	C98.614105,742.643433 95.487366,738.488647 95.861115,732.841797 
	C96.240921,727.103577 99.257431,722.872192 105.060265,721.020264 
	C109.364288,719.646790 113.682701,718.659973 118.256691,718.622803 
	C137.622116,718.465210 156.791946,721.015381 175.984726,722.949829 
	C199.482834,725.318115 222.935211,728.196167 246.305450,731.675964 
	C249.502289,732.151917 252.704529,733.598267 256.323456,732.130127 
	C256.084045,729.160461 253.684738,727.995911 251.835373,726.538391 
	C210.079620,693.628479 175.488708,654.201355 146.277878,609.969727 
	C132.192307,588.641113 119.859138,566.357788 113.449402,541.325867 
	C111.038208,531.909485 110.247025,522.377319 111.671700,512.634705 
	C114.023735,496.550354 125.643898,485.438080 143.311935,482.684387 
	C164.244949,479.421814 183.658798,485.037994 202.503906,493.111664 
	C234.840729,506.965485 259.894196,529.547852 279.567047,558.461792 
	C281.894501,561.882507 281.962219,565.078430 281.069092,568.795776 
	C277.833801,582.261841 276.418121,595.992798 275.359253,610.244629 
M262.516846,671.936279 
	C245.464966,642.912354 228.360489,613.918518 208.286407,586.824829 
	C203.129669,579.864868 197.888992,572.925781 191.354660,567.158447 
	C187.847794,564.063232 184.929199,565.130859 183.716934,569.657715 
	C183.273331,571.314331 183.516037,572.933655 183.742554,574.601440 
	C184.543320,580.497437 187.195435,585.695923 189.692871,590.961914 
	C204.036835,621.206970 224.299576,647.413818 245.669250,672.850098 
	C250.702744,678.841492 255.862320,684.753662 261.339874,690.333069 
	C263.803314,692.842346 266.762177,697.422485 270.822510,694.371521 
	C275.233032,691.057373 271.057648,687.082886 269.473785,683.757568 
	C267.619507,679.864380 265.105591,676.285461 262.516846,671.936279 
z"/>
<path fill="#000000" opacity="1.000000" stroke="none" 
	d="
M272.026001,222.393738 
	C271.032471,222.396210 270.533386,222.397659 270.034302,222.397888 
	C258.991669,222.402725 257.928375,221.351456 257.809296,210.312119 
	C257.557159,186.933350 270.816559,166.670364 291.549622,160.890152 
	C314.724854,154.429047 332.211578,166.643845 337.181763,189.997391 
	C338.817505,197.683273 338.578247,205.528915 337.280701,213.315674 
	C336.058960,220.647675 334.286591,222.228485 326.920807,222.249115 
	C308.787354,222.299896 290.653870,222.344849 272.026001,222.393738 
z"/>
<path fill="#000000" opacity="1.000000" stroke="none" 
	d="
M578.988525,247.000488 
	C593.651550,260.588837 597.265259,277.287903 594.381714,295.996033 
	C593.558167,301.339294 590.369751,304.074493 585.030334,304.743591 
	C574.354065,306.081512 563.724121,304.756866 553.132385,304.018433 
	C534.069824,302.689453 515.068848,300.625366 496.209717,297.347382 
	C483.409119,295.122498 481.626923,293.405731 483.742676,280.710602 
	C486.624420,263.419708 497.397827,251.424606 511.531097,242.205170 
	C531.525574,229.162338 557.023315,229.417938 573.828186,242.504898 
	C575.532715,243.832306 577.101379,245.334152 578.988525,247.000488 
z"/>
</svg>